<?xml version="1.0" encoding="utf-8"?>
<!-- Generator: Adobe Illustrator 16.0.0, SVG Export Plug-In . SVG Version: 6.00 Build 0)  -->
<!DOCTYPE svg PUBLIC "-//W3C//DTD SVG 1.0//EN" "http://www.w3.org/TR/2001/REC-SVG-20010904/DTD/svg10.dtd">
<svg version="1.0" xmlns="http://www.w3.org/2000/svg" xmlns:xlink="http://www.w3.org/1999/xlink" x="0px" y="0px" width="1500px"
	 height="1500px" viewBox="0 0 1500 1500" enable-background="new 0 0 1500 1500" xml:space="preserve">
<g id="Agua">
	<radialGradient id="SVGID_1_" cx="760.3594" cy="750.0776" r="637.1799" gradientUnits="userSpaceOnUse">
		<stop  offset="0" style="stop-color:#52EDAB"/>
		<stop  offset="1" style="stop-color:#0BA4B9"/>
	</radialGradient>
	<path fill="url(#SVGID_1_)" d="M760.359,112.897c-351.905,0-637.18,285.275-637.18,637.181c0,351.903,285.275,637.18,637.18,637.18
		c351.904,0,637.18-285.276,637.18-637.18C1397.539,398.172,1112.264,112.897,760.359,112.897z"/>
</g>
<g id="Img" display="none">
</g>
<g id="America">
	
		<radialGradient id="SVGID_2_" cx="461.7778" cy="850.3066" r="672.8628" fx="441.1124" fy="1299.8862" gradientUnits="userSpaceOnUse">
		<stop  offset="0" style="stop-color:#00F64A"/>
		<stop  offset="0.4031" style="stop-color:#00CF58"/>
		<stop  offset="1" style="stop-color:#00B372"/>
	</radialGradient>
	<path fill="url(#SVGID_2_)" d="M213,565c-8.524,4.517-15.866,24.284-20,33c-3.524,7.43-9.081,23.003-11,31
		c-1.633,6.807-3.642,22.022,0,28c2.269,3.724,11.192,7.321,15.5,8c3.828,0.603,11.626,0.1,15.5,0c2.999-0.077,9.888-2.13,12,0
		c3.696,3.729,0.552,15.779,0,21c-0.71,6.712-1.013,20.326,0,27c0.855,5.636,4.662,16.458,6,22c2.44,10.108,9.192,30.835,7,41
		c-1.754,8.135-18.354,19.687-18,28c0.503,11.835,21.902,29.858,33,34c10.139,3.784,32.702,1.673,43,5
		c8.577,2.771,22.241,15.412,30,20c3.957,2.339,12.471,6.215,17,7c2.217,0.384,6.805,0.496,9,0c5.796-1.311,16.144-10.012,22-9
		c8.709,1.505,16.564,27.639,25,25c4.295-1.343-2.849-14.517,0-18c6.022-7.364,29.935-3.045,38,2c6.302,3.941,14.73,16.759,20,22
		c3.545,3.525,17.03,7.107,16,12c-3.403,16.17-55.068-1.207-65,12c-2.188,2.909,4,11,4,14s14.666,11.553,19,16
		c3.533,3.625,7.368,13.474,11,17c5.054,4.907,17.977,13.545,25,13c11.627-0.903,30.559-30.846,40-24
		c8.457,6.132-13.64,28.643-15,39c-1.39,10.589,11.123,30.049,15,40c4.293,11.018,18.533,36.886,11,46c-3.026,3.661-19,0-19,0
		s6.417,18.378,12,19c6.676,0.744,12.634-16.856,19-19c12.673-4.268,37.867,13.379,50,19c12.625,5.85,40.242,11.446,53,17
		c13.996,6.092,39.343,23.467,52,32c3.737,2.52,12.261,6.421,15,10c3.363,4.395,8.717,15.738,7,21c-2.692,8.25-18.538,18.57-26,23
		c-4.427,2.628-14.469,6.254-18,10c-6.06,6.43-17.785,23.615-15,32c4.372,13.16,33.116,25.87,46,31c9.406,3.745,28.362,10.898,38,14
		c8.663,2.788,28.277,3.866,35,10c4.733,4.319,6.266,18.205,9,24c2.582,5.474,9.46,16.565,15,19c5.264,2.313,23,0,23,0l-12,14
		c0,0,19.985-10.269,22-5c3.678,9.616-25.789,18.686-36,20c-14.134,1.818-43.124,3.245-57,0c-21.034-4.919-60.017-24.691-79-35
		c-9.347-5.075-28.487-14.624-37-21c-6.369-4.77-16.194-17.878-23-22c-7.579-4.59-25.262-8.537-34-10c-5.719-0.957-17.87-5.703-23-3
		c-6.635,3.496-11.08,21.107-18,24c-5.122,2.141-16.468-2.54-22-3c-5.779-0.48-17.202,2.959-23,3c-4.07,0.028-12.225-1.479-16-3
		c-15.475-6.232-45.717-21.711-58-33c-14.063-12.925-29.725-70.996-46-61c-5.736,3.523,12.893,22.746,7,26c-33.5,18.5-54.5-55-81-67
		c-2.453-1.11-7.779-2.479-10-4c-18.523-12.688-44.483-51.163-55-71c-8.983-16.944-26.269-51.586-31-70.171
		c-2.905-11.409-4.652-35.061-5-46.829c-0.185-6.247,2.658-19.343,0-25c-4.384-9.329-25.852-17.727-32-26
		c-6.618-8.906-9.47-32.01-11-43c-1.395-10.016-9.204-30.408-6-40c4.761-14.253,28.494-38.078,43-42c4.851-1.312,20,2,20,2
		s-2.646-15.084-4-20c-3.382-12.272-9.903-37.431-17-48c-4.962-7.391-20.534-19.219-22-28c-4.998-29.939,38.766-111.313,10-121
		c-4.861-1.637-13.646,18.948-15,14c-11.5-42,39.508-120.612,59-158c16.285-31.238,14.52-22.106,20-29
		c24.459-30.77,26.526-39.341,36-52c6.809-9.098,21.427-26.528,29-35c7.54-8.435,23.57-24.455,32-32c11.928-10.676,50-40,50-40
		s42.667-33.475,58-43c18.615-11.564,57.901-31.265,78-40c16.102-6.998,49.101-19.237,66-24c14.488-4.083,38.218,0.338,53-2.5
		c14.593-2.802,35.686-18.511,50-22.5c7.744-2.158,43.233-8.704,49-3.103c8.405,8.164-17.51,27.751-23,38.103
		c-6.297,11.873-17.145,36.095-25,47c-5.238,7.272-12.671,23.794-18,31c-8.475,11.459-29.516,31.845-35,45c-5.238,12.565-7,54-7,54
		s4.649,28.614,3,38c-1.568,8.926-10.957,24.89-15,33c-3.642,7.305-9.973,22.569-15,29c-4.065,5.2-16.396,14.412-16,21
		c0.329,5.479,13.989,14.396,11,19c-6.508,10.023-38.086-4.045-46-13c-5.909-6.687-4.074-26.57-7-35
		c-2.164-6.235-9.695-19.049-16-21c-15.039-4.654-59.647,19.73-53,34c4.234,9.09,33.127-10.302,40-3c6.36,6.758-4.251,31.208,3,37
		c1.953,1.56,7.76-1.11,10,0c4.412,2.188,10.436,13.72,8,18c-2.609,4.583-15.728,1.858-21,2c-6.327,0.171-19.538-0.801-25-4
		c-5.805-3.399-13.367-16.88-20-18c-17.166-2.898-54.219,22.815-57,40c-1.811,11.19,20.558,27.728,30,34
		c5.514,3.663,19.576,6.593,26,5c5.644-1.399,15.864-12.726,21-10c2.871,1.523,1.539,10.137,0,13c-3.07,5.713-16.595,10.979-23,12
		c-9.632,1.535-30.108-5.007-39-1c-8.757,3.946-20.4,24.299-30,24c-12.059-0.376-28.036-25.447-40-27c-9.092-1.18-26.72,9.32-33,16
		c-12.12,12.891-20.181,49.128-28,65c-2.111,4.285-8.309,14.9-13,14c-12.148-2.33-13.846-35.769-12-48
		c1.416-9.38,16.869-27.858,12-36C262.685,553.769,225.593,558.327,213,565z"/>
</g>
<g id="Capa_4">
	<path fill="#2BAF73" d="M288,745c-10.367,3.712-20.969-25.525-28-34c-7.068-8.521-27.606-33.036-19-40
		c5.753-4.655,18.983,12.138,23.5,18c5.936,7.703,19.281,22.238,23.5,31C290.711,725.631,293.884,742.893,288,745z"/>
	<path fill="#2BAF73" d="M310,780c-6.241-0.55-19.725-6.163-22-12c-1.916-4.913,5.809-17.071,11-18c5.958-1.065,14.706,10.736,19,15
		c2.272,2.256,10.428,4.827,10,8C327.354,777.785,314.81,780.424,310,780z"/>
	<radialGradient id="SVGID_3_" cx="749.8154" cy="158.9907" r="138.2768" gradientUnits="userSpaceOnUse">
		<stop  offset="0" style="stop-color:#FFFFFF"/>
		<stop  offset="1" style="stop-color:#C8C8C8"/>
	</radialGradient>
	<path fill="url(#SVGID_3_)" d="M732,113c0,0-18.994,34.153-17.5,46c0.615,4.875,6.851,15.448,5,20
		c-3.547,8.727-17.215,5.203-22.5,13c-5.751,8.484-4.5,26.741-4.5,36.991c0,6.25,7.562,23.561,4.5,29.009
		c-3.298,5.868-17.239,10.519-23,14c-4.99,3.016-17.127,6.926-20,12c-2.956,5.221-0.733,18.045,0,24c1.007,8.185,2.349,25.994,8,32
		c3.414,3.628,14.037,6.429,19,6c7.575-0.655,21.003-9.325,27-14c9.219-7.186,20.827-29.244,31-35c9.517-5.385,32.205-6.261,43-8
		c5.48-0.883,16.647-1.531,22-3c6.806-1.868,21.547-5.524,26-11c7.33-9.013,7.87-34.027,9-45.59c0.959-9.806-4.79-30.8,0-39.41
		c4.148-7.457,22.177-12.875,29-18c7.271-5.46,20.401-18.115,27.036-24.333c4.069-3.813,17.508-10.219,15.964-15.578
		c-6.277-21.788-66.119-16.69-88.666-19.09C799.877,110.61,732,113,732,113z"/>
</g>
<g id="Capa_5">
	<linearGradient id="SVGID_4_" gradientUnits="userSpaceOnUse" x1="1258.1719" y1="1125.8584" x2="977.5814" y2="234.8782">
		<stop  offset="0" style="stop-color:#A69648"/>
		<stop  offset="0.204" style="stop-color:#AF9A3F"/>
		<stop  offset="1" style="stop-color:#78C63F"/>
	</linearGradient>
	<path fill="url(#SVGID_4_)" d="M1398,735c0.215-6.246,0.351-18.76,0-25c-0.973-17.332-4.665-51.921-7.77-69
		c-4.058-22.325-15.015-66.487-22.23-88c-6.128-18.269-21.423-53.745-30-71c-15.154-30.489-47.76-90.622-68-118
		c-15.037-20.339-50.811-56.423-69-74c-12.87-12.437-40-35.851-54-47c-13.3-10.591-44.813-26.389-55-40c-15.609-20.856-10-28-93-47
		c-13.641-3.123,42,37,42,37s27.933,6.154,36,11c9.396,5.644,35.194,20.874,31,31c-1.53,3.695-13.705-3.276-16,0
		c-3.357,4.793,7.816,16.15,8,22c0.139,4.428-0.626,16.295-5,17c-3.902,0.629-6.817-9.705-9-13c-5.161-7.793-14.092-24.347-20-31.59
		c-3.511-4.303-11.48-12.184-16-15.41c-9.373-6.691-29.578-19.527-41-21c-14.979-1.932-56.706-1.929-59,13
		c-1.752,11.401,28.855,20.024,40,23c10.386,2.773,36.302-8.408,43,0c3.483,4.373-3.289,16.473-5,21.795
		c-3.169,9.858-18.628,28.189-16,38.205c1.446,5.514,16.118,8.619,18,14c2.462,7.04-6.119,21.594-7,29
		c-0.827,6.951-1.781,21.23,0,28c1.909,7.257,13,23,15,26s1.734,14.578,0,19c-7.194,18.344-48.321,44.433-46,64
		c1.128,9.505,23.594,17.101,29,25c4.645,6.786,15.744,24.283,11,31c-4.326,6.126-22.647-1.48-30,0
		c-3.174,0.639-9.553,2.827-11.942,5.011c-6.683,6.11-16.384,22.974-16.942,32.011c-0.743,12.019,7.906,37.264,17.115,45.022
		c7.941,6.691,30.48,9.357,40.77,7.955c4.985-0.68,14.251-5.645,18-9c3.771-3.376,9.006-12.347,11-17c2.532-5.908,4.021-18.885,6-25
		c2.831-8.746,9.253-26.128,14-34c6.05-10.032,18.399-34.366,30-36c8.377-1.18,21.258,13.89,28,19c8.342,6.322,27.87,17.382,32,27
		c1.68,3.912-4.667,14.836-1,17c4.839,2.855,16.786-6.836,19-12c3.014-7.03-1.096-24.131-6-30c-6.549-7.837-30.179-8.433-38-15
		c-6.961-5.845-25.367-24.512-19-31c12.794-13.037,48.372,26.062,63,37c8.782,6.567,21.035,30.177,32,30
		c3.535-0.057,9.761-6.473,10-10c0.531-7.832-22.634-18.042-19-25c2.78-5.323,18.928-2.215,24,1c5.006,3.173,5.93,17.932,11,21
		c3.636,2.2,12.821,0.776,17,0c3.424-0.636,9.547-5.448,13-5c5.505,0.715,14.714,8.526,18,13c3.276,4.46,6.194,15.525,7,21
		c1.238,8.413,5.101,28.076-1,34c-2.152,2.09-9.003-0.125-12,0c-12.031,0.5-39.144-4.159-48,4c-5.593,5.151,1.079,25.433-5,30
		c-13.686,10.281-55.49,3.684-68-8c-7.436-6.945,1.39-35.05-7.5-40c-3.63-2.021-11.637,4.469-15.5,6c-9.279,3.677-27.5,11.937-37,15
		c-9.061,2.921-29.692,2.899-37,9c-3.78,3.156-4.64,14.4-8,18c-3.281,3.515-12.333,7.841-17,9c-7.036,1.748-22.45-3.108-29,0
		c-3.571,1.695-7.16,9.5-10,12.25c-4.068,3.939-14.889,9.019-18,13.75c-3.398,5.167-6.352,17.825-6,24
		c0.243,4.265,5.921,11.729,6,16c0.132,7.114-5.874,20.608-9,27c-5.94,12.146-23.171,33.33-30,45c-7.793,13.316-28.123,39.571-28,55
		c0.077,9.617,16.871,24.449,18,34c1.061,8.973-7.866,26.037-9,35c-1.161,9.177-2.125,27.997,0,37c2.697,11.426,21.846,30.291,21,42
		c-0.505,6.986-13.904,16.316-16,23c-1.945,6.202-4.597,21.403,0,26c6.364,6.364,27.098-1.324,36,0c11.89,1.77,34.415,10.791,46,14
		c8.94,2.477,26.971,6.868,36,9c4.486,1.06,14.261,1.305,18,4c3.548,2.557,8.429,10.664,9,15c0.476,3.608-4.162,10.363-4,14
		c0.31,6.957,3.507,23.481,10,26c7.817,3.032,22.767-10.758,30-15c6.52-3.823,19.213-12.138,25-17c9.069-7.62,21.293-32.192,33-34
		c3.648-0.563,11.79,3.513,13,7c2.68,7.723-19.253,24.735-13,30c6.63,5.583,20.445-17.607,29-19c4.848-0.789,15.912,1.181,19,5
		c6.767,8.368-7.539,38.02,2,43c7.07,3.691,22.365-10.508,27-17c5.073-7.107,2.584-27.15,8-34c3.468-4.385,17.103-5.219,20-10
		c7.386-12.188-10.989-46.834-1-57c3.504-3.566,15.338,1.808,20,0c7.26-2.815,17.371-15.621,23-21c6.646-6.351,20.807-18.415,26-26
		c5.249-7.665,11.987-25.212,15-34c5.348-15.602,3.001-53.851,16-64c1.971-1.538,8.14,1.67,10,0c13.847-12.431,6.359-55.465,8-74
		C1396.641,756.761,1397.75,742.263,1398,735z M1098.191,363.204c-4.83,6.202-12.443,10.297-19.571,13.26
		c-5.846,2.431-14.501,5.692-20.582,2.16c-12.959-7.527-2.323-27.132-2.038-38.124c0.006-0.229,0.027-0.449,0.057-0.662
		c0.016-0.266,0.029-0.533,0.044-0.803c-0.47-1.373-0.576-1.33-0.863-2.771c-8.436-3.171-14.566-15.854-12.059-24.593
		c1.204-4.197,6.889-4.901,9.139-1.194c3.007,4.954-0.817,10.023,9.697,14.333c0.261-0.141,0.518-0.31,0.77-0.511
		c7.216-7.799,10.526-15.301,10.716-22.799c0.163-6.436,1.878-8.6,4-2.5c4,11.5,5.287,21.535,0,29.5
		c-0.05,2.737-4.539,5.032-1.84,6.395c2.348,1.185,5.047,1.648,7.604,2.176c5.824,1.201,12.59,2.633,16.029,8.04
		C1102.879,350.748,1102.209,358.045,1098.191,363.204z M1257.031,425.604c-1.145,9.38-2.668,19.806-7.398,28.159
		c-4.575,8.077-14.506,12.283-23.399,8.796c-9.401-3.686-17.159-11.339-22.192-20.021c-3.653-6.302-4.838-13.316-4.818-20.559
		c0.021-7.332,0.854-15.914,5.805-21.735c5.342-6.281,14.291-5.468,20.328-0.626c3.478,2.789,5.362,6.762,8.437,9.88
		c4.011,4.067,5.208,18.147,9.708,16.502c4.147-1.517,10.444-16.553,12.591-12.833c0.804,0.795,1.348,1.905,1.409,3.333
		C1257.631,419.536,1257.398,422.591,1257.031,425.604z M1291.465,442.036c-5.788-4.109-9.885-10.111-15.295-14.695
		c-5.293-4.485-11.244-8.761-15.813-14.008c-1.825-2.096-3.51-4.282-5.105-6.524c-8.843-7.175-17.842-13.827-22.201-25.09
		c-1.836-4.745-2.618-10.487,1.682-14.17c5.114-4.38,11.676-2.346,16.5,1.228c5.14,3.809,10.07,8.805,14.595,13.32
		c5.047,5.035,9.491,10.734,12.889,17.016c3.906,7.222,5.78,16.252,10.602,22.864c3.78,5.183,9.431,8.337,10.504,15.194
		C1300.517,441.613,1305.5,452,1291.465,442.036z M1357.5,543c-2.774,0.764-11.906-14.606-12.821-17.171
		c-0.054-0.151-0.089-0.255-0.113-0.335c-0.037-0.064-0.08-0.14-0.138-0.246c-0.145-0.277-0.298-0.548-0.46-0.814
		c-0.298-0.474-0.612-0.935-0.946-1.384c-0.167-0.197-0.729-0.898-0.803-0.988c-0.421-0.507-0.841-1.014-1.254-1.526
		c-1.711-2.118-3.544-7.457-1.465-9.536c1.773-1.773,6.82,0.341,8.535,2.464c2.497,3.091,4.932,5.909,6.286,9.707
		C1355.237,525.74,1359.98,542.318,1357.5,543z"/>
</g>
<g id="Capa_6">
	<path fill="#78C63F" d="M976,442c2.229-8.575-1.164-33.35-10-34c-6.248-0.459-7.955,17.216-12,22c-4.622,5.466-19.786,15.555-26,12
		c-7.378-4.221-2.571-25.898,0-34c1.574-4.958,12-17,12-17s-3.741-14.153-4-19c-0.282-5.29,1.885-18.624,7-20
		c8.903-2.395,23.015,16.244,28,24c3.652,5.682,10.635,18.741,17,21c6.126,2.174,21.313-4.503,26,0c4.326,4.157,0.719,18.043,0,24
		c-0.523,4.334-3.337,13.625-7,16c-7.783,5.048-28.55,14.528-36,9"/>
	<path fill="#AF9A3F" d="M1221,1117c-7.538-6.02-33,20-33,20s-7.554,29.365,0,32c10.249,3.574,21.83-24.456,27-34
		C1217.26,1130.829,1224.707,1119.96,1221,1117z"/>
</g>
<g id="Capa_7" display="none">
	<path display="inline" fill="#094C2E" d="M1265.827,382.097c5.047,5.035,9.491,10.734,12.889,17.016
		c3.642,6.732,5.519,15.034,9.662,21.485L1283,406c-4.26-9.406-19.332-29.649-31.498-37.015
		C1256.544,372.767,1261.382,377.661,1265.827,382.097z"/>
	<path display="inline" fill="#114930" d="M1357.354,549.864L1358,554C1358,552.807,1357.761,551.403,1357.354,549.864z"/>
	<path display="inline" fill="#114930" d="M1357.354,549.864l-3.565-22.819c-0.681,1.087-1.753,1.945-2.959,2.276
		c-1.17,0.322-2.283,0.204-3.249-0.229C1351.649,536.031,1355.801,543.992,1357.354,549.864z"/>
	<path display="inline" fill="#0C5936" d="M1375,704c-28.835,6.807-75.892-87.19-53-106c7.572-6.222,31,24,31,24s19.168,30.49,22,42
		C1377.39,673.71,1384.732,701.703,1375,704z"/>
	<path display="inline" fill="#11442D" d="M1075.66,334.895c2.337,1.179,5.022,1.645,7.568,2.169
		c-4.113-1.73-7.978-3.535-9.229-6.063c-0.488-0.987-0.722-2.25-0.776-3.704c-0.131,0.213-0.249,0.435-0.387,0.643
		C1072.787,330.676,1072.961,333.532,1075.66,334.895z"/>
	<path display="inline" fill="#11442D" d="M1091.137,355.575c-2.791,5.101-7.738,6.943-13.113,9.742
		c-1.806,0.94-3.545,0.719-4.9-0.116c-0.813,1.274-1.645,2.535-2.537,3.754c4.175-1.237,8.248-3.334,11.743-5.472
		C1085.451,361.576,1089.729,359.138,1091.137,355.575z"/>
	<path display="inline" fill="#11442D" d="M1048.152,308.074c-0.714-0.419-1.43-0.497-2.152-0.074
		c-0.558,0.326-0.959,0.749-1.252,1.239C1045.704,308.441,1046.929,308.044,1048.152,308.074z"/>
	<path display="inline" fill="#073A23" d="M1226.233,462.56c-6.146-2.409-11.581-6.519-16.021-11.498
		c3.974,5.531,12.012,11.525,17.49,11.993C1227.211,462.909,1226.721,462.751,1226.233,462.56z"/>
</g>
</svg>
