<?xml version="1.0" encoding="utf-8"?>
<!-- Generator: Adobe Illustrator 16.0.0, SVG Export Plug-In . SVG Version: 6.00 Build 0)  -->
<!DOCTYPE svg PUBLIC "-//W3C//DTD SVG 1.1//EN" "http://www.w3.org/Graphics/SVG/1.1/DTD/svg11.dtd">
<svg version="1.1" id="Capa_1" xmlns="http://www.w3.org/2000/svg" xmlns:xlink="http://www.w3.org/1999/xlink" x="0px" y="0px"
	 width="48px" height="48px" viewBox="0 0 48 48" enable-background="new 0 0 48 48" xml:space="preserve">
<rect fill="none" width="48" height="48"/>
<path fill="#FFFFFF" d="M6.54,4L4,6.54L9.46,12H8c-1.1,0-2,0.9-2,2v20c0,1.1,0.9,2,2,2h24c0.42,0,0.779-0.16,1.08-0.359L39.46,42
	L42,39.46L6.54,4z M28.443,32.464H11.515c-0.776,0-1.411-0.635-1.411-1.41V16.946c0-0.776,0.635-1.411,1.411-1.411h1.423
	L29.429,32.06C29.174,32.31,28.826,32.464,28.443,32.464z"/>
<path fill="#FFFFFF" d="M29.904,22.264v-5.346c0-0.78-0.637-1.417-1.416-1.417h-5.348l-3.5-3.5H32c1.1,0,2,0.9,2,2v7l8-8v21.359
	L29.904,22.264z"/>
</svg>
