<?xml version="1.0" encoding="utf-8"?>
<!-- Generator: Adobe Illustrator 16.0.0, SVG Export Plug-In . SVG Version: 6.00 Build 0)  -->
<!DOCTYPE svg PUBLIC "-//W3C//DTD SVG 1.1//EN" "http://www.w3.org/Graphics/SVG/1.1/DTD/svg11.dtd">
<svg version="1.1" id="Capa_1" xmlns="http://www.w3.org/2000/svg" xmlns:xlink="http://www.w3.org/1999/xlink" x="0px" y="0px"
	 width="48px" height="48px" viewBox="0 0 48 48" enable-background="new 0 0 48 48" xml:space="preserve">
<path fill="none" d="M0,0h48v48H0V0z M0,0h48v48H0V0z"/>
<path fill="#F44336" d="M42,13l-8,8v-7c0-1.1-0.9-2-2-2H19.64L42,34.359V13z M6.54,4L4,6.54L9.46,12H8c-1.1,0-2,0.9-2,2v20
	c0,1.1,0.9,2,2,2h24c0.42,0,0.779-0.16,1.08-0.359L39.46,42L42,39.46L6.54,4z"/>
</svg>
