<?xml version="1.0" encoding="utf-8"?>
<!-- Generator: Adobe Illustrator 16.0.0, SVG Export Plug-In . SVG Version: 6.00 Build 0)  -->
<!DOCTYPE svg PUBLIC "-//W3C//DTD SVG 1.1//EN" "http://www.w3.org/Graphics/SVG/1.1/DTD/svg11.dtd">
<svg version="1.1" id="Capa_1" xmlns="http://www.w3.org/2000/svg" xmlns:xlink="http://www.w3.org/1999/xlink" x="0px" y="0px"
	 width="48px" height="48px" viewBox="0 0 48 48" enable-background="new 0 0 48 48" xml:space="preserve">
<path fill="none" d="M0,0h48v48H0V0z M0,0h48v48H0V0z"/>
<path fill="#F44336" d="M38,22h-3.4c0,1.48-0.32,2.859-0.855,4.1l2.46,2.461C37.32,26.6,38,24.38,38,22z M29.96,22.34
	c0-0.12,0.04-0.22,0.04-0.34V10c0-3.32-2.68-6-6-6c-3.32,0-6,2.68-6,6v0.36L29.96,22.34z M8.54,6L6,8.54l12.02,12.02V22
	c0,3.32,2.66,6,5.98,6c0.44,0,0.88-0.061,1.3-0.16l3.32,3.32c-1.42,0.66-3,1.04-4.62,1.04c-5.52,0-10.6-4.2-10.6-10.2H10
	c0,6.82,5.44,12.46,12,13.439V42h4v-6.561c1.82-0.264,3.54-0.899,5.08-1.799L39.46,42L42,39.46L8.54,6z"/>
</svg>
