<?xml version="1.0" encoding="utf-8"?>
<!-- Generator: Adobe Illustrator 16.0.0, SVG Export Plug-In . SVG Version: 6.00 Build 0)  -->
<!DOCTYPE svg PUBLIC "-//W3C//DTD SVG 1.1//EN" "http://www.w3.org/Graphics/SVG/1.1/DTD/svg11.dtd">
<svg version="1.1" id="Capa_1" xmlns="http://www.w3.org/2000/svg" xmlns:xlink="http://www.w3.org/1999/xlink" x="0px" y="0px"
	 width="48px" height="48px" viewBox="0 0 48 48" enable-background="new 0 0 48 48" xml:space="preserve">
<path fill="none" d="M0,0h48v48H0V0z"/>
<path fill="#FFFFFF" d="M34,21v-7c0-1.1-0.9-2-2-2H8c-1.1,0-2,0.9-2,2v20c0,1.1,0.9,2,2,2h24c1.1,0,2-0.9,2-2v-7l8,8V13L34,21z
	 M29.938,31.099c0,0.779-0.639,1.419-1.42,1.419H11.482c-0.78,0-1.419-0.64-1.419-1.419V16.902c0-0.781,0.639-1.42,1.419-1.42
	h17.036c0.781,0,1.42,0.639,1.42,1.42V31.099z"/>
</svg>
